<svg width="32" height="32" viewBox="0 0 32 32" fill="none" xmlns="http://www.w3.org/2000/svg">
<path d="M21.3099 24.3273C21.2352 25.3598 21.1313 26.3816 20.9922 27.3745C20.9584 27.6158 20.6663 27.7217 20.4777 27.5632L19.079 26.3877C18.8536 26.1982 18.5242 26.1877 18.2867 26.3624L16.5394 27.6472C16.3142 27.8128 16.0045 27.8128 15.7792 27.6472L14.0056 26.3429C13.7803 26.1773 13.4706 26.1773 13.2454 26.3429L11.4717 27.6472C11.2465 27.8128 10.9368 27.8128 10.7115 27.6472L8.96429 26.3624C8.72677 26.1877 8.39738 26.1982 8.17196 26.3877L6.7669 27.5685C6.57965 27.7259 6.28942 27.6225 6.2521 27.3835C5.24534 20.9361 5.68146 14.6477 6.15174 10.8388C6.25156 10.0304 6.89882 9.39914 7.7248 9.31436C8.14804 9.27092 8.57875 9.23422 9.01409 9.20358M13.4467 8.79588H18.1977M13.4467 12.5224H23.5821M13.4467 16.249H23.5821M8.16037 19.5973H10.1773M8.16037 15.8536H10.1773M24.294 4.49478C21.384 4.25301 16.6573 4.05368 12.6138 4.46868C11.7878 4.55346 11.1405 5.18476 11.0407 5.99314C10.5704 9.80199 10.1343 16.0904 11.1411 22.5378C11.1784 22.7768 11.4686 22.8802 11.6559 22.7228L13.0609 21.542C13.2864 21.3525 13.6157 21.342 13.8533 21.5167L15.6005 22.8015C15.8257 22.9672 16.1354 22.9672 16.3607 22.8015L18.1344 21.4972C18.3596 21.3316 18.6693 21.3316 18.8945 21.4972L20.6682 22.8015C20.8934 22.9672 21.2031 22.9672 21.4284 22.8015L23.1756 21.5167C23.4131 21.342 23.7425 21.3525 23.968 21.542L25.3667 22.7175C25.5553 22.876 25.8474 22.7701 25.8812 22.5288C26.674 16.8686 26.3233 10.2674 25.9479 6.11407C25.8697 5.24893 25.1767 4.56811 24.294 4.49478Z" stroke="black" stroke-linecap="round"/>
</svg>
