<svg width="32" height="32" viewBox="0 0 32 32" fill="none" xmlns="http://www.w3.org/2000/svg">
<path d="M14.615 5.32989C15.1274 4.09796 16.8726 4.09795 17.385 5.32989L19.3512 10.0573C19.5672 10.5766 20.0556 10.9315 20.6163 10.9764L25.7199 11.3856C27.0499 11.4922 27.5892 13.1519 26.5759 14.0199L22.6875 17.3508C22.2603 17.7167 22.0737 18.2909 22.2042 18.838L23.3922 23.8182C23.7018 25.1161 22.2899 26.1419 21.1513 25.4464L16.7819 22.7776C16.3019 22.4844 15.6981 22.4844 15.2181 22.7776L10.8487 25.4464C9.71009 26.1419 8.29821 25.1161 8.6078 23.8182L9.79576 18.838C9.92627 18.2909 9.73972 17.7167 9.31253 17.3508L5.42414 14.02C4.41084 13.1519 4.95013 11.4922 6.28011 11.3856L11.3837 10.9764C11.9444 10.9315 12.4328 10.5766 12.6488 10.0573L14.615 5.32989Z" stroke="black"/>
</svg>
