<svg width="32" height="32" viewBox="0 0 32 32" fill="none" xmlns="http://www.w3.org/2000/svg">
<path d="M13.5 9.99995L13.8535 10.3535L13.5 9.99995ZM9.50001 13.9999L9.14646 13.6464H9.14646L9.50001 13.9999ZM22.5 18.9999L22.8535 19.3535L22.5 18.9999ZM18.5 22.9999L18.1465 22.6464L18.5 22.9999ZM22.5 9.99996L22.8536 9.64641L22.5 9.99996ZM9.50001 22.9999L9.85356 22.6464H9.85356L9.50001 22.9999ZM13.1464 9.64639L9.14646 13.6464L9.85357 14.3535L13.8535 10.3535L13.1464 9.64639ZM22.1464 18.6464L18.1465 22.6464L18.8536 23.3535L22.8535 19.3535L22.1464 18.6464ZM22.8535 19.3535C25.5341 16.673 25.5341 12.327 22.8536 9.64641L22.1465 10.3535C24.4365 12.6435 24.4365 16.3564 22.1464 18.6464L22.8535 19.3535ZM13.8535 10.3535C16.1436 8.06348 19.8564 8.06348 22.1465 10.3535L22.8536 9.64641C20.173 6.96585 15.827 6.96585 13.1464 9.64639L13.8535 10.3535ZM9.14646 13.6464C6.46591 16.3269 6.46591 20.6729 9.14645 23.3535L9.85356 22.6464C7.56354 20.3564 7.56354 16.6435 9.85357 14.3535L9.14646 13.6464ZM9.14645 23.3535C11.827 26.034 16.173 26.034 18.8536 23.3535L18.1465 22.6464C15.8564 24.9364 12.1436 24.9364 9.85356 22.6464L9.14645 23.3535ZM21.8966 9.89638L16.8966 14.8964L17.6037 15.6035L22.6037 10.6035L21.8966 9.89638ZM16.8966 15.6035L21.3966 20.1035L22.1037 19.3964L17.6037 14.8964L16.8966 15.6035ZM17.6037 14.8964L13.1037 10.3964L12.3966 11.1035L16.8966 15.6035L17.6037 14.8964Z" fill="black"/>
</svg>
