<svg width="32" height="32" viewBox="0 0 32 32" fill="none" xmlns="http://www.w3.org/2000/svg">
<path d="M19.2143 22.6499C18.1284 23.1541 16.9231 23.4823 15.654 23.4823C10.8747 23.4823 7.00024 18.8276 7.00024 17.6448C7.00024 16.9744 8.24511 15.1884 10.194 13.7669M23.2693 19.5156C23.9317 18.7188 24.3077 18.0133 24.3077 17.6448C24.3077 16.4621 20.4333 11.8073 15.654 11.8073C17.7569 11.8073 19.4616 13.4984 19.4616 15.5845M15.654 19.3617C13.5511 19.3617 11.8463 17.6706 11.8463 15.5845M25.0001 11.8074C22.3642 9.626 19.287 8.3736 16.0001 8.3736C14.8155 8.3736 13.658 8.5363 12.5386 8.84655M7.00024 11.8074C7.24457 11.6052 7.49269 11.411 7.74441 11.225M7.00002 7L23.7141 23.8748" stroke="currentColor" stroke-linecap="round"/>
</svg>
