<svg width="32" height="32" viewBox="0 0 32 32" fill="none" xmlns="http://www.w3.org/2000/svg">
<path d="M6.49951 13.6342L6.49951 10.5C6.49951 8.29086 8.29038 6.49999 10.4995 6.5L18.3931 6.50002C19.9581 6.50002 21.2268 7.76868 21.2268 9.33365C21.2268 10.8986 19.9581 12.1673 18.3931 12.1673L10.006 12.1673L8.2709 14.2705C7.67414 14.9939 6.49951 14.5719 6.49951 13.6342Z" stroke="currentColor"/>
<path d="M24.4995 23.0684V20.2906C24.4995 18.0815 22.7086 16.2906 20.4995 16.2906L12.6058 16.2907C11.0409 16.2907 9.77222 17.5593 9.77222 19.1243C9.77222 20.6893 11.0409 21.9579 12.6059 21.9579L20.993 21.9579L22.7888 23.772C23.4173 24.4068 24.4995 23.9618 24.4995 23.0684Z" stroke="currentColor"/>
</svg>
