<svg width="32" height="32" viewBox="0 0 32 32" fill="none" xmlns="http://www.w3.org/2000/svg">
<path d="M13.5897 21.5335C12.797 22.9065 11.0414 23.3769 9.66844 22.5842C8.29546 21.7915 7.82504 20.0359 8.61773 18.6629L13.5897 21.5335Z" stroke="currentColor"/>
<path d="M19.6258 24.824L7.99766 18.1104C7.28308 17.6979 7.28378 16.8979 7.74999 16.2572C7.85764 16.1092 8.0065 15.9982 8.16384 15.9048L9.66101 15.0157C10.6075 14.4536 11.4277 13.7023 12.0705 12.8087L13.3673 11.0059C13.5188 10.7953 13.6785 10.5923 13.8662 10.4132C14.5511 9.75981 16.4656 8.19561 18.8541 8.47507L19.0639 8.11166C19.6517 7.09345 20.9539 6.74469 21.9723 7.33267C22.9907 7.92066 23.3398 9.22274 22.7519 10.2409L22.5421 10.6044C23.9457 12.4893 23.5981 14.8626 23.373 15.828C23.3041 16.1234 23.189 16.404 23.0598 16.6784L22.2117 18.4798C21.7098 19.5457 21.4495 20.7094 21.4495 21.8877L21.4495 23.5647C21.4495 23.7559 21.4282 23.9491 21.3495 24.1233C21.0255 24.8402 20.3366 25.2343 19.6258 24.824Z" stroke="currentColor"/>
</svg>
