<svg width="32" height="32" viewBox="0 0 32 32" fill="none" xmlns="http://www.w3.org/2000/svg">
<path d="M13.077 23.0186L13.0993 6.5L18.1959 8.53597C18.9116 8.82188 19.7099 8.82138 20.4252 8.53459L23.4418 7.32517C24.4273 6.93008 25.5 7.65574 25.5 8.71744V22.3417C25.5 22.7506 25.2512 23.1182 24.8716 23.2701L20.4123 25.0547C19.698 25.3406 18.9011 25.3411 18.1865 25.0561L13.077 23.0186ZM13.077 23.0186V6.5L7.80379 8.49307C7.02622 8.78697 6.5115 9.5312 6.5109 10.3625L6.50159 23.3292C6.50083 24.3782 7.54957 25.104 8.53108 24.7337L13.077 23.0186ZM18.9231 9.42308V24.7692" stroke="currentColor" stroke-linecap="round"/>
</svg>
